<svg width="659" height="72" viewBox="0 0 659 72" fill="none" xmlns="http://www.w3.org/2000/svg">
<path d="M0.5 1.18182H24.0909L40.3182 40.7273H41.1364L57.3636 1.18182H80.9545V71H62.4091V30.6364H61.8636L46.3182 70.4545H35.1364L19.5909 30.3636H19.0455V71H0.5V1.18182ZM108.074 71H87.6193L110.665 1.18182H136.574L159.619 71H139.165L123.892 20.4091H123.347L108.074 71ZM104.256 43.4545H142.71V57.6364H104.256V43.4545ZM201.261 23C201.08 20.7273 200.227 18.9545 198.705 17.6818C197.205 16.4091 194.92 15.7727 191.852 15.7727C189.898 15.7727 188.295 16.0114 187.045 16.4886C185.818 16.9432 184.909 17.5682 184.318 18.3636C183.727 19.1591 183.42 20.0682 183.398 21.0909C183.352 21.9318 183.5 22.6932 183.841 23.375C184.205 24.0341 184.773 24.6364 185.545 25.1818C186.318 25.7045 187.307 26.1818 188.511 26.6136C189.716 27.0455 191.148 27.4318 192.807 27.7727L198.534 29C202.398 29.8182 205.705 30.8977 208.455 32.2386C211.205 33.5795 213.455 35.1591 215.205 36.9773C216.955 38.7727 218.239 40.7955 219.057 43.0455C219.898 45.2955 220.33 47.75 220.352 50.4091C220.33 55 219.182 58.8864 216.909 62.0682C214.636 65.25 211.386 67.6705 207.159 69.3295C202.955 70.9886 197.898 71.8182 191.989 71.8182C185.92 71.8182 180.625 70.9205 176.102 69.125C171.602 67.3295 168.102 64.5682 165.602 60.8409C163.125 57.0909 161.875 52.2955 161.852 46.4545H179.852C179.966 48.5909 180.5 50.3864 181.455 51.8409C182.409 53.2955 183.75 54.3977 185.477 55.1477C187.227 55.8977 189.307 56.2727 191.716 56.2727C193.739 56.2727 195.432 56.0227 196.795 55.5227C198.159 55.0227 199.193 54.3295 199.898 53.4432C200.602 52.5568 200.966 51.5455 200.989 50.4091C200.966 49.3409 200.614 48.4091 199.932 47.6136C199.273 46.7955 198.182 46.0682 196.659 45.4318C195.136 44.7727 193.08 44.1591 190.489 43.5909L183.534 42.0909C177.352 40.75 172.477 38.5114 168.909 35.375C165.364 32.2159 163.602 27.9091 163.625 22.4545C163.602 18.0227 164.784 14.1477 167.17 10.8295C169.58 7.48863 172.909 4.88636 177.159 3.02272C181.432 1.15909 186.33 0.22727 191.852 0.22727C197.489 0.22727 202.364 1.17045 206.477 3.05682C210.591 4.94318 213.761 7.60227 215.989 11.0341C218.239 14.4432 219.375 18.4318 219.398 23H201.261ZM227.562 71V1.18182H246.517V29.4091H247.472L268.472 1.18182H290.562L266.972 32.2727L291.108 71H268.472L252.79 44.8182L246.517 53V71H227.562ZM336.449 61.4545V11H351.722V61.4545H336.449ZM318.858 43.8636V28.5909H369.312V43.8636H318.858ZM399.091 16.4545V1.18182H459.773V16.4545H438.773V71H420.091V16.4545H399.091ZM466.906 71V1.18182H517.224V16.4545H485.861V28.4545H514.634V43.7273H485.861V55.7273H517.088V71H466.906ZM546.943 1.18182L558.398 21.5H558.943L570.534 1.18182H591.67L570.807 36.0909L592.489 71H570.807L558.943 50.2727H558.398L546.534 71H524.989L546.398 36.0909L525.67 1.18182H546.943ZM597.935 16.4545V1.18182H658.616V16.4545H637.616V71H618.935V16.4545H597.935Z" fill="black"/>
</svg>
